<svg width="150" height="66" viewBox="0 0 150 66" fill="none" xmlns="http://www.w3.org/2000/svg">
<rect x="1.5" y="1.5" width="147" height="47" rx="23.5" fill="white"/>
<rect x="1.5" y="1.5" width="147" height="47" rx="23.5" stroke="black" stroke-width="3"/>
<path d="M34.1094 23.2344H29.125C29.7812 24.401 30.6198 25.5052 31.6406 26.5469C32.6615 27.5781 33.7396 28.401 34.875 29.0156C34.5938 29.2552 34.2812 29.5729 33.9375 29.9688C33.5938 30.3646 33.3229 30.724 33.125 31.0469C31.3021 29.8594 29.6771 28.1302 28.25 25.8594V32.5156H25.75V25.9688C24.3542 28.2188 22.7292 29.9375 20.875 31.125C20.3542 30.3646 19.7708 29.6979 19.125 29.125C20.2812 28.5 21.3542 27.6667 22.3438 26.625C23.3333 25.5833 24.1458 24.4531 24.7812 23.2344H19.9062V20.9375H25.75V17.3125H28.25V20.9375H34.1094V23.2344ZM40.2656 20.4844L38.5 22.4062C38.0208 21.7708 37.1146 20.9635 35.7812 19.9844L37.4375 18.2656C38.8229 19.1823 39.7656 19.9219 40.2656 20.4844ZM38.9688 24.4531L40.2969 26.4531C39.2656 27.724 38.1146 29.0052 36.8438 30.2969L35.3594 28.2812C36.3906 27.2708 37.5938 25.9948 38.9688 24.4531ZM45.9688 22.3438V23.75C45.9688 24.2812 46.0469 24.8281 46.2031 25.3906C46.3594 25.9531 46.6094 26.5469 46.9531 27.1719C47.2969 27.7865 47.7969 28.3802 48.4531 28.9531C49.1094 29.526 49.8802 30.0052 50.7656 30.3906C50.2344 31.0573 49.7292 31.7656 49.25 32.5156C48.0729 31.974 47.0781 31.1927 46.2656 30.1719C45.4635 29.151 44.9583 28.2188 44.75 27.375C44.4896 28.2083 43.9062 29.1302 43 30.1406C42.0938 31.1406 40.9844 31.9323 39.6719 32.5156C39.5469 32.2552 39.3333 31.9167 39.0312 31.5C38.7292 31.0833 38.474 30.7656 38.2656 30.5469C39.224 30.1615 40.0573 29.6823 40.7656 29.1094C41.4844 28.526 42.0312 27.9167 42.4062 27.2812C42.7812 26.6458 43.0573 26.0365 43.2344 25.4531C43.4115 24.8698 43.5 24.3073 43.5 23.7656V22.3438H42.6094C42.1094 23.4583 41.5781 24.3802 41.0156 25.1094C40.401 24.651 39.6667 24.2344 38.8125 23.8594C39.4792 23.1615 40.0521 22.2448 40.5312 21.1094C41.0208 19.9635 41.3854 18.7292 41.625 17.4062L44.0469 17.8281C43.9219 18.4427 43.7344 19.1771 43.4844 20.0312H48.4531L48.9062 19.8906L50.625 20.9219C50.1771 22.4531 49.5469 23.9531 48.7344 25.4219C47.7135 24.8906 47.0573 24.5729 46.7656 24.4688C47.1198 23.7396 47.4115 23.0312 47.6406 22.3438H45.9688ZM52.3281 31.6719L51.1719 31.0625C51.6823 30.3438 51.974 29.1354 52.0469 27.4375L53.2656 27.6562C53.2031 28.6042 53.1094 29.4062 52.9844 30.0625C52.8594 30.7083 52.6406 31.2448 52.3281 31.6719ZM53.2812 27.8281L54.25 27.7344C54.3854 28.776 54.4271 29.7656 54.375 30.7031L53.375 30.8281C53.4375 29.9531 53.4062 28.9531 53.2812 27.8281ZM54.375 27.75L55.2969 27.5938C55.5573 28.4792 55.7135 29.3438 55.7656 30.1875L54.7812 30.375C54.7604 29.6667 54.625 28.7917 54.375 27.75ZM63.9844 19.9688H61.5469V23.2188H63.9844V19.9688ZM54.0469 24.4688V25.1562H54.7656V24.4688H54.0469ZM54.7656 19.7188H54.0469V20.3438H54.7656V19.7188ZM54.7656 22.75V22.0781H54.0469V22.75H54.7656ZM66.0938 25.3438H63.9219C64.4531 27.9688 65.4219 29.7396 66.8281 30.6562C66.5677 30.875 66.2865 31.1719 65.9844 31.5469C65.6927 31.9219 65.4688 32.2552 65.3125 32.5469C64.3646 31.8594 63.625 30.9219 63.0938 29.7344C62.5729 28.5469 62.1615 27.0833 61.8594 25.3438H61.5312C61.4271 28.6354 60.8802 31.0417 59.8906 32.5625C59.7031 32.3958 59.4271 32.1979 59.0625 31.9688C58.7083 31.7396 58.3958 31.5677 58.125 31.4531C58.0938 31.5677 58.0312 31.6823 57.9375 31.7969C57.6979 32.1406 57.3646 32.3542 56.9375 32.4375C56.6042 32.5 56.1302 32.5208 55.5156 32.5C55.474 31.8438 55.3177 31.25 55.0469 30.7188C55.2865 30.75 55.5625 30.7656 55.875 30.7656C56.0417 30.7656 56.1823 30.6927 56.2969 30.5469C56.401 30.3802 56.4896 30.0104 56.5625 29.4375L56.0781 29.6094C56.0052 29.0573 55.7969 28.3698 55.4531 27.5469L56.3125 27.25C56.4583 27.5729 56.5833 27.875 56.6875 28.1562C56.7083 27.625 56.7292 27.2188 56.75 26.9375H52.125V17.8594H58.375V19.7188H56.6094V20.3438H58.1406V22.0781H56.6094V22.75H58.1406V24.4688H56.6094V25.1562H58.7188C58.7083 25.5 58.6979 25.75 58.6875 25.9062C58.5833 28.5208 58.4323 30.2448 58.2344 31.0781C58.724 30.1927 59.0417 29.1719 59.1875 28.0156C59.3438 26.849 59.4219 25.5365 59.4219 24.0781V17.8438H66.0938V25.3438ZM72.8125 24.1875V24.9062C73.0521 25.0833 73.3542 25.3177 73.7188 25.6094C74.0938 25.901 74.4635 26.2031 74.8281 26.5156C75.2031 26.8177 75.4167 26.9896 75.4688 27.0312L74.1562 29.0469C73.7188 28.4948 73.2708 27.9688 72.8125 27.4688V32.5H70.5312V27.4531C69.8333 28.8177 69.1354 29.875 68.4375 30.625C68.2812 30.1354 67.8906 29.3698 67.2656 28.3281C68.349 27.276 69.2865 25.8958 70.0781 24.1875H67.6406V22.0469H70.5312V20.4844C69.6458 20.651 68.8333 20.7865 68.0938 20.8906C68 20.3698 67.776 19.7656 67.4219 19.0781C70.1302 18.6406 72.2448 18.0729 73.7656 17.375L75.4062 19.1406C74.625 19.4531 73.7604 19.7292 72.8125 19.9688V22.0469H75.3594V24.1875H72.8125ZM78.2188 19.2812V28.3594H75.9531V19.2812H78.2188ZM79.6719 17.625H81.9688V29.75C81.9688 30.4062 81.8958 30.9062 81.75 31.25C81.6146 31.5938 81.3646 31.8646 81 32.0625C80.4167 32.3542 79.2917 32.5 77.625 32.5C77.5104 31.6979 77.2448 30.8958 76.8281 30.0938C77.5052 30.125 78.3073 30.1406 79.2344 30.1406C79.526 30.1406 79.6719 30.0052 79.6719 29.7344V17.625ZM92.3906 25.7656H95.2344V24.1875H92.3906V25.7656ZM87.4219 25.7656H90.0469V24.1875H87.4688C87.4688 24.6771 87.4531 25.2031 87.4219 25.7656ZM90.0469 20.5625H87.4688V22.0312H90.0469V20.5625ZM95.2344 22.0312V20.5625H92.3906V22.0312H95.2344ZM97.5625 18.3594V29.9062C97.5625 30.4896 97.4896 30.9427 97.3438 31.2656C97.1979 31.599 96.9531 31.8542 96.6094 32.0312C96.0677 32.3125 95.0208 32.4427 93.4688 32.4219C93.3854 31.7552 93.1406 31.0156 92.7344 30.2031C93.1198 30.2344 93.8229 30.25 94.8438 30.25C95.1042 30.25 95.2344 30.125 95.2344 29.875V27.9531H92.3906V32.2969H90.0469V27.9531H87.1562C86.8125 29.974 86.1354 31.526 85.125 32.6094C84.9375 32.3906 84.6458 32.1198 84.25 31.7969C83.8646 31.474 83.5417 31.2448 83.2812 31.1094C83.6979 30.6615 84.0365 30.1458 84.2969 29.5625C84.5677 28.9792 84.7604 28.3542 84.875 27.6875C84.9896 27.0104 85.0625 26.4167 85.0938 25.9062C85.1354 25.3854 85.1562 24.776 85.1562 24.0781V18.3594H97.5625ZM111.734 26.0156L110.797 23.5L111.922 23.0781L112.938 25.625L111.734 26.0156ZM113.719 25.3594L112.797 22.7656L113.953 22.3438L114.969 24.9688L113.719 25.3594ZM100.172 19.9062C102.609 19.6146 105.104 19.3646 107.656 19.1562C109.312 19.0833 110.938 19.0833 112.531 19.1562L112.609 21.9062C112.266 21.875 111.865 21.8438 111.406 21.8125C110.312 22.4792 109.297 23.2135 108.359 24.0156C108.016 24.3177 107.688 24.6406 107.375 24.9844C107.073 25.3281 106.807 25.7083 106.578 26.125C106.359 26.5417 106.245 26.9948 106.234 27.4844C106.255 27.776 106.365 28.0156 106.562 28.2031C106.76 28.3906 106.969 28.5417 107.188 28.6562C107.417 28.7604 107.646 28.8542 107.875 28.9375C108.104 29.0208 108.339 29.099 108.578 29.1719C109.307 29.3698 109.995 29.5052 110.641 29.5781L109.047 32.2969C108.161 32.0781 107.271 31.776 106.375 31.3906C105.948 31.1927 105.531 30.974 105.125 30.7344C104.729 30.4844 104.37 30.1927 104.047 29.8594C103.734 29.5156 103.542 29.1094 103.469 28.6406C103.365 27.724 103.5 26.849 103.875 26.0156C104.25 25.1823 104.745 24.4323 105.359 23.7656C105.984 23.0885 106.776 22.401 107.734 21.7031C106.276 21.7448 104.958 21.849 103.781 22.0156C102.604 22.1719 101.474 22.3646 100.391 22.5938L100.172 19.9062ZM122.016 26.75L121.359 21.6875L121.25 19.0312H124.766L124.656 21.6875L124.016 26.75H122.016ZM121.109 29.4375C121.109 28.9375 121.286 28.5208 121.641 28.1875C122.005 27.8438 122.458 27.6719 123 27.6719C123.542 27.6719 123.99 27.8438 124.344 28.1875C124.708 28.5208 124.891 28.9375 124.891 29.4375C124.891 29.9479 124.714 30.3698 124.359 30.7031C124.005 31.026 123.552 31.1875 123 31.1875C122.448 31.1875 121.995 31.026 121.641 30.7031C121.286 30.3698 121.109 29.9479 121.109 29.4375Z" fill="black"/>
<mask id="path-3-inside-1_14_70" fill="white">
<path d="M9.21869 64.68L25.9588 47.9399L18.8627 40.8438L2.12258 57.5839L9.21869 64.68Z"/>
</mask>
<path d="M9.21869 64.68L25.9588 47.9399L18.8627 40.8438L2.12258 57.5839L9.21869 64.68Z" fill="white"/>
<path d="M9.21869 64.68L7.09737 62.5587L23.8375 45.8186L25.9588 47.9399L28.0801 50.0612L11.34 66.8013L9.21869 64.68Z" fill="black" mask="url(#path-3-inside-1_14_70)"/>
<rect width="16" height="3" transform="matrix(0 -1 -1 0 13 60.5)" fill="black"/>
<rect width="2" height="3" transform="matrix(0 -1 -1 0 25 47)" fill="white"/>
<rect width="5" height="3" transform="matrix(0 -1 -1 0 16 48)" fill="white"/>
<rect width="7" height="4" transform="matrix(0 -1 -1 0 10 66)" fill="white"/>
</svg>
