<svg width="273" height="74" viewBox="0 0 273 74" fill="none" xmlns="http://www.w3.org/2000/svg">
<path d="M4.34375 6.375L27.9062 5.84375L27.7812 11.4688L18.5625 11.6562V21.4375L30.0938 21.2188L29.9375 26.8438L2.1875 27.2188L2.3125 21.7188L13.0625 21.5312V11.7188L4.21875 11.875L4.34375 6.375ZM33.875 6.875L53.0938 5.96875L55.5 8.5L54.3438 25.9375L34.9688 27.0938L34.625 21.5938L48.8125 20.9375L48.9688 11.1875L34.4688 12.125L33.875 6.875ZM59.3125 6.375L66.0312 6.25L67.5 1.09375L72.7188 1.53125L71.4688 6.125L75.5938 6.0625L75.0312 11.4688L70.0938 11.5312L66.75 25.9688L61.3125 25.4375L64.5938 11.7188L59.5312 11.6562L59.3125 6.375ZM83.4688 3.40625L88.0625 5.8125L83.5938 12.0625L79.375 9.9375L83.4688 3.40625ZM76.9375 12.25L81.6875 12.375C81.8125 14.3542 81.9375 16.3333 82.0625 18.3125C84.6042 18.7292 87.125 19.3125 89.625 20.0625L87.6875 25.0312C85.8542 24.3438 84 23.7083 82.125 23.125C82.125 24.3958 82.0625 25.5 81.9375 26.4375C81.7083 27.8333 81.0729 28.9792 80.0312 29.875C79.0104 30.7708 77.8125 31.25 76.4375 31.3125C75.4583 31.3958 74.4896 31.3021 73.5312 31.0312C72.5938 30.7812 71.7604 30.3229 71.0312 29.6562C70.3021 28.9896 69.7812 28.1875 69.4688 27.25C69.1562 26.3125 69 25.3646 69 24.4062C69.0417 23.0312 69.5208 21.8646 70.4375 20.9062C71.375 19.9479 72.4583 19.25 73.6875 18.8125C74.9167 18.3542 76.1875 18.0938 77.5 18.0312C77.3333 16.1146 77.1458 14.1875 76.9375 12.25ZM77.5938 25.3125C77.6771 24.2917 77.7083 23.2604 77.6875 22.2188C77.2292 22.2396 76.7917 22.2604 76.375 22.2812C75.9583 22.3021 75.5417 22.3958 75.125 22.5625C74.7083 22.7083 74.3854 22.9688 74.1562 23.3438C73.9479 23.7188 73.8542 24.1146 73.875 24.5312C73.75 25.1771 73.8646 25.7812 74.2188 26.3438C74.5729 26.9062 75.0938 27.1562 75.7812 27.0938C76.0938 27.0521 76.3958 26.9792 76.6875 26.875C77 26.75 77.2188 26.5417 77.3438 26.25C77.4688 25.9375 77.5521 25.625 77.5938 25.3125ZM101.312 16.8438V18.4062H103.656V16.8438H101.312ZM101.312 11.375V12.875H103.656V11.375H101.312ZM110.719 11.375H108.375V12.875H110.719V11.375ZM110.719 18.4062V16.8438H108.375V18.4062H110.719ZM119.344 22.3438H111.438C114.146 24.3021 117.438 25.7604 121.312 26.7188C120.083 27.8229 118.948 29.2604 117.906 31.0312C114.365 29.8229 111.188 27.9583 108.375 25.4375V30.9375H103.656V25.4375C100.927 27.9167 97.7708 29.7917 94.1875 31.0625C93.1667 29.4375 92.1042 28.1146 91 27.0938C94.9167 26.0312 98.1979 24.4479 100.844 22.3438H93.0938V18.4062H96.8125V16.8438H91.8125V12.875H96.8125V11.375H93.7188V7.4375H103.656V6.3125C100.302 6.52083 97.1875 6.63542 94.3125 6.65625C94.2083 5.40625 93.8542 4.09375 93.25 2.71875C102.542 2.48958 109.99 1.79167 115.594 0.625L118.562 4.4375C115.5 5.0625 112.104 5.55208 108.375 5.90625V7.4375H118.625V11.375H115.281V12.875H120.5V16.8438H115.281V18.4062H119.344V22.3438ZM131.031 17.875H135.562V16.6875H131.031V17.875ZM131.031 12.0625V13.25H135.562V12.0625H131.031ZM144.906 12.0625H140.406V13.25H144.906V12.0625ZM144.906 17.875V16.6875H140.406V17.875H144.906ZM152.969 22.7812V26.9688H140.406V31.0312H135.562V26.9688H123.438V22.7812H135.562V21.5625H126.531V8.375H135.562V7.28125H124.094V3.09375H135.562V0.625H140.406V3.09375H152.062V7.28125H140.406V8.375H149.625V21.5625H140.406V22.7812H152.969ZM179.594 18.0312L177.719 13L179.969 12.1562L182 17.25L179.594 18.0312ZM183.562 16.7188L181.719 11.5312L184.031 10.6875L186.062 15.9375L183.562 16.7188ZM156.469 5.8125C161.344 5.22917 166.333 4.72917 171.438 4.3125C174.75 4.16667 178 4.16667 181.188 4.3125L181.344 9.8125C180.656 9.75 179.854 9.6875 178.938 9.625C176.75 10.9583 174.719 12.4271 172.844 14.0312C172.156 14.6354 171.5 15.2812 170.875 15.9688C170.271 16.6562 169.74 17.4167 169.281 18.25C168.844 19.0833 168.615 19.9896 168.594 20.9688C168.635 21.5521 168.854 22.0312 169.25 22.4062C169.646 22.7812 170.062 23.0833 170.5 23.3125C170.958 23.5208 171.417 23.7083 171.875 23.875C172.333 24.0417 172.802 24.1979 173.281 24.3438C174.74 24.7396 176.115 25.0104 177.406 25.1562L174.219 30.5938C172.448 30.1562 170.667 29.5521 168.875 28.7812C168.021 28.3854 167.188 27.9479 166.375 27.4688C165.583 26.9688 164.865 26.3854 164.219 25.7188C163.594 25.0312 163.208 24.2188 163.062 23.2812C162.854 21.4479 163.125 19.6979 163.875 18.0312C164.625 16.3646 165.615 14.8646 166.844 13.5312C168.094 12.1771 169.677 10.8021 171.594 9.40625C168.677 9.48958 166.042 9.69792 163.688 10.0312C161.333 10.3438 159.073 10.7292 156.906 11.1875L156.469 5.8125Z" fill="black"/>
<path d="M40.9375 49.5938L49.4062 49.4375L49.375 43.875L54.5938 43.7188L54.5625 49.375L60.1875 49.2812C59.6667 48.6146 59.4167 47.8542 59.4375 47C59.4375 45.9375 59.8229 45.0521 60.5938 44.3438C61.3854 43.6354 62.3333 43.2708 63.4375 43.25C64.5 43.2708 65.4167 43.6354 66.1875 44.3438C66.9792 45.0521 67.3958 45.9375 67.4375 47C67.3958 48.0625 66.9792 48.9583 66.1875 49.6875C65.4167 50.4167 64.5 50.7812 63.4375 50.7812C63.1875 50.7812 62.9479 50.7604 62.7188 50.7188V54.25L54.5312 54.3438L54.4688 71.9688L50.875 73.4688L45.5312 68.6562L47.1875 65.8125L49.5 67.6562L49.4375 54.4375L40.9375 54.5625V49.5938ZM43.5 57.5L47.625 59.4688L41.5938 68.0938L37.3125 65.7188L43.5 57.5ZM60.375 57.125L66.5625 65.3125L62.2812 67.7188L56.25 59.0938L60.375 57.125ZM60.9375 47.0625C60.9792 48.0833 61.4896 48.8125 62.4688 49.25H62.7188V49.3438C62.9479 49.3854 63.1979 49.4062 63.4688 49.4062C64.1354 49.4062 64.7083 49.1875 65.1875 48.75C65.6667 48.3125 65.9271 47.75 65.9688 47.0625C65.9271 46.4167 65.6667 45.875 65.1875 45.4375C64.7083 45 64.1354 44.7604 63.4688 44.7188C62.7604 44.7396 62.1562 44.9792 61.6562 45.4375C61.1771 45.875 60.9375 46.4167 60.9375 47.0625ZM90.625 45.375L94.7188 49.0938C93.1146 50.1562 90.7083 51.875 87.5 54.25L87.625 72.5625L81.875 72.6875L82.125 58.1562C78.2917 60.8438 74.7812 63.0104 71.5938 64.6562L69.2812 59.7812C72.7812 57.8021 76.6042 55.3542 80.75 52.4375C84.9167 49.5 88.2083 47.1458 90.625 45.375ZM101.469 45.25L111.375 50.375L108.969 55L99.0312 50.2812L101.469 45.25ZM102.281 62.7812L104.281 64.875C107.49 62.8542 110.615 60.6146 113.656 58.1562C116.719 55.6771 119.698 52.9688 122.594 50.0312L126.5 54.6875C123.229 57.5625 119.99 60.3229 116.781 62.9688C114.385 64.9688 111.927 66.8958 109.406 68.75C108.594 69.375 107.76 69.9688 106.906 70.5312C106.073 71.0938 105.125 71.5729 104.062 71.9688L98.6875 67.0938L102.281 62.7812ZM133.375 45.2812H139.375L139.25 53.3438L151.281 59.75L149.25 64.75L139.188 59L139 71.1562H133.125L133.375 45.2812ZM158.469 45.1562L164.375 45.2812L163.625 51.4062L183.438 50.8125L183.312 55.7812L175.281 55.875C174.823 58.5625 174.344 61.2188 173.844 63.8438C173.26 66.7396 172.49 69.5625 171.531 72.3125L166.031 72.0625C167.531 66.7708 168.667 61.3958 169.438 55.9375L163.094 56.0625L162.188 63.7188L156.312 63.4688L158.469 45.1562ZM177.562 50.4062L175.656 45.4062L177.938 44.5625L179.938 49.6562L177.562 50.4062ZM181.531 49.0938L179.656 43.9062L182 43.0938L184 48.3438L181.531 49.0938ZM187.156 55.75L190.938 53.3125L195.906 60.5625L192.031 62.8438L187.156 55.75ZM194.25 52.0625L198.531 50.3125L201.812 58.2812L197.438 59.75L194.25 52.0625ZM212.812 54.5938C212.458 55.5312 212.073 56.3333 211.656 57C211.24 57.6667 210.802 58.3438 210.344 59.0312C208.906 61.0729 207.417 63.0833 205.875 65.0625C203.812 67.6875 201.688 70.3333 199.5 73L195.094 70.3125C197.552 67.4167 199.833 64.5417 201.938 61.6875C204.062 58.8125 206.062 55.7708 207.938 52.5625L212.812 54.5938ZM219.875 45.2812H225.875L225.75 53.3438L237.781 59.75L235.75 64.75L225.688 59L225.5 71.1562H219.625L219.875 45.2812ZM254.656 61.5L253.344 51.375L253.125 46.0625H260.156L259.938 51.375L258.656 61.5H254.656ZM252.844 66.875C252.844 65.875 253.198 65.0417 253.906 64.375C254.635 63.6875 255.542 63.3438 256.625 63.3438C257.708 63.3438 258.604 63.6875 259.312 64.375C260.042 65.0417 260.406 65.875 260.406 66.875C260.406 67.8958 260.052 68.7396 259.344 69.4062C258.635 70.0521 257.729 70.375 256.625 70.375C255.521 70.375 254.615 70.0521 253.906 69.4062C253.198 68.7396 252.844 67.8958 252.844 66.875Z" fill="black"/>
</svg>
